<?xml version="1.0" encoding="utf-8"?>
<!-- Generator: Adobe Illustrator 27.1.1, SVG Export Plug-In . SVG Version: 6.00 Build 0)  -->
<svg version="1.1" baseProfile="tiny" id="Layer_1" xmlns="http://www.w3.org/2000/svg" xmlns:xlink="http://www.w3.org/1999/xlink"
	 x="0px" y="0px" viewBox="0 0 403 88.9" overflow="visible" xml:space="preserve">
<g>
	<path fill="#00CC99" d="M44.6,5.1L25.1,38.9l7.7,13.6L44.6,32l7.5-13.8L44.6,5.1z M60.1,32H44.6l11.8,20.5L64.1,66h15.6L60.1,32z
		 M17.2,52.5L9.4,66h40l7-13.5H17.2z"/>
	<path fill="#262626" d="M118.9,5l22.2,61.1h-7.8L127.4,50h-25.3l-5.9,16.1h-7.7L110.7,5H118.9z M104.9,42.5h20L115,15.2L104.9,42.5
		z"/>
	<path fill="#262626" d="M155.1,60.3v23.5H148V22.7h7.1v5.7c3.1-4.2,8.5-7.2,15.8-7.2c12.8,0,23.1,10.3,23.1,23.1
		s-10.3,23.1-23.1,23.1l0,0C163.6,67.5,158.3,64.5,155.1,60.3 M186.3,44.4c0-9.6-7-15.9-15.7-15.9c-8.3,0-15.5,5.8-15.5,15.9
		s7.2,15.9,15.5,15.9C179.3,60.3,186.3,54,186.3,44.4"/>
	<path fill="#262626" d="M246.8,44.4c0,12.8-10.3,23.1-23.1,23.1s-23.1-10.3-23.1-23.1c0-12.8,10.3-23.1,23.1-23.1l0,0
		C236.4,21.3,246.7,31.7,246.8,44.4 M207.8,44.4c0,8.8,7.1,15.9,15.9,16s15.9-7.1,16-15.9c0-8.8-7.1-15.9-15.9-16l0,0
		c-8.8-0.1-15.9,7-16,15.8C207.7,44.3,207.7,44.3,207.8,44.4"/>
	<rect x="255.5" y="5" fill="#262626" width="7.1" height="61.1"/>
	<polygon fill="#262626" points="277.2,22.8 291.7,55.8 306.2,22.8 314,22.8 287.2,83.8 279.4,83.8 287.8,64.6 270.2,24.5 
		269.5,22.8 	"/>
	<path fill="#262626" d="M328.1,14.3V23h13.4v7.1h-13.4V53c0,4,1.9,7.3,6.4,7.3c2.1,0,4.1-0.7,5.8-1.9l3.3,6.2
		c-1.5,0.7-4.6,2.8-9.2,2.8c-7.4,0-13.3-5.2-13.3-14.1V14.2h7V14.3z"/>
	<path fill="#262626" d="M386.5,28.5v-5.7h7.1V66h-7.1v-5.7c-3.1,4.2-8.5,7.2-15.8,7.2c-12.8,0-23.1-10.3-23.1-23.1
		s10.3-23.1,23.1-23.1C378,21.3,383.4,24.3,386.5,28.5 M355.3,44.4c0,9.6,7,15.9,15.7,15.9c8.2,0,15.5-5.8,15.5-15.9
		s-7.2-15.9-15.5-15.9C362.4,28.5,355.3,34.8,355.3,44.4"/>
</g>
</svg>
