<?xml version="1.0" encoding="UTF-8"?>
<svg width="511px" height="453px" viewBox="0 0 511 453" version="1.1" xmlns="http://www.w3.org/2000/svg" xmlns:xlink="http://www.w3.org/1999/xlink">
    <title>AN_rgb_vert</title>
    <defs>
        <path d="M257.685,161.287 C247.095,161.287 238.476,169.905 238.476,180.498 C238.476,191.091 247.095,199.708 257.685,199.708 C268.277,199.708 276.896,191.091 276.896,180.498 C276.896,169.905 268.277,161.287 257.685,161.287 Z M257.685,215.406 C238.437,215.406 222.777,199.747 222.777,180.498 C222.777,161.249 238.437,145.59 257.685,145.59 C276.933,145.59 292.593,161.249 292.593,180.498 C292.593,199.747 276.933,215.406 257.685,215.406 Z M238.052,336.818 L146.021,197.013 L146.021,273.293 C140.951,271.576 135.662,270.705 130.283,270.705 C124.904,270.705 119.617,271.576 114.541,273.293 L114.541,205.622 L58.23,303.193 L84.031,303.193 C82.06,308.592 81.058,314.236 81.058,320.008 C81.058,325.775 82.06,331.422 84.031,336.818 L-1.42108547e-14,336.818 L194.439,0 L271.347,133.21 C266.916,131.926 262.334,131.275 257.685,131.275 C249.689,131.275 241.769,133.246 234.711,136.984 L194.439,67.231 L149.507,145.058 L241.947,285.471 L241.947,227.229 C247.019,228.945 252.306,229.814 257.685,229.814 C263.064,229.814 268.353,228.945 273.427,227.229 L273.427,303.193 L330.656,303.193 L283.882,222.15 C294.707,215.322 302.422,204.615 305.464,192.299 L388.879,336.818 L238.052,336.818 Z M130.283,300.79 C119.693,300.79 111.074,309.41 111.074,320.008 C111.074,330.603 119.693,339.223 130.283,339.223 C140.873,339.223 149.492,330.603 149.492,320.008 C149.492,309.41 140.873,300.79 130.283,300.79 Z M130.283,354.893 C111.052,354.893 95.406,339.246 95.406,320.008 C95.406,300.768 111.052,285.118 130.283,285.118 C149.515,285.118 165.16,300.768 165.16,320.008 C165.16,339.246 149.515,354.893 130.283,354.893 L130.283,354.893 Z" id="path-1"></path>
        <linearGradient x1="49.9998714%" y1="100%" x2="49.9998714%" y2="0.00028177507%" id="linearGradient-3">
            <stop stop-color="#1E66A3" offset="0%"></stop>
            <stop stop-color="#7F2C7A" offset="100%"></stop>
        </linearGradient>
    </defs>
    <g id="AN_rgb_vert" stroke="none" stroke-width="1" fill="none" fill-rule="evenodd">
        <g id="Group-3" transform="translate(66.682000, 0.300000)">
            <mask id="mask-2" fill="white">
                <use xlink:href="#path-1"></use>
            </mask>
            <g id="Clip-2"></g>
            <path d="M257.685,161.287 C247.095,161.287 238.476,169.905 238.476,180.498 C238.476,191.091 247.095,199.708 257.685,199.708 C268.277,199.708 276.896,191.091 276.896,180.498 C276.896,169.905 268.277,161.287 257.685,161.287 Z M257.685,215.406 C238.437,215.406 222.777,199.747 222.777,180.498 C222.777,161.249 238.437,145.59 257.685,145.59 C276.933,145.59 292.593,161.249 292.593,180.498 C292.593,199.747 276.933,215.406 257.685,215.406 Z M238.052,336.818 L146.021,197.013 L146.021,273.293 C140.951,271.576 135.662,270.705 130.283,270.705 C124.904,270.705 119.617,271.576 114.541,273.293 L114.541,205.622 L58.23,303.193 L84.031,303.193 C82.06,308.592 81.058,314.236 81.058,320.008 C81.058,325.775 82.06,331.422 84.031,336.818 L-1.42108547e-14,336.818 L194.439,0 L271.347,133.21 C266.916,131.926 262.334,131.275 257.685,131.275 C249.689,131.275 241.769,133.246 234.711,136.984 L194.439,67.231 L149.507,145.058 L241.947,285.471 L241.947,227.229 C247.019,228.945 252.306,229.814 257.685,229.814 C263.064,229.814 268.353,228.945 273.427,227.229 L273.427,303.193 L330.656,303.193 L283.882,222.15 C294.707,215.322 302.422,204.615 305.464,192.299 L388.879,336.818 L238.052,336.818 Z M130.283,300.79 C119.693,300.79 111.074,309.41 111.074,320.008 C111.074,330.603 119.693,339.223 130.283,339.223 C140.873,339.223 149.492,330.603 149.492,320.008 C149.492,309.41 140.873,300.79 130.283,300.79 Z M130.283,354.893 C111.052,354.893 95.406,339.246 95.406,320.008 C95.406,300.768 111.052,285.118 130.283,285.118 C149.515,285.118 165.16,300.768 165.16,320.008 C165.16,339.246 149.515,354.893 130.283,354.893 L130.283,354.893 Z" id="Fill-1" fill="url(#linearGradient-3)" mask="url(#mask-2)"></path>
        </g>
        <path d="M26.199,423.211 L21.258,435.187 L31.057,435.187 L26.199,423.211 Z M26.945,394.251 L52.84,452.249 L37.947,452.249 L34.951,444.914 L17.217,444.914 L14.221,452.249 L0,452.249 L25.82,394.251 L26.945,394.251 L26.945,394.251 Z" id="Fill-4" fill="#0A0B09"></path>
        <path d="M101.33,412.137 C100.139,411.49 98.84,410.892 97.445,410.34 C96.049,409.79 94.629,409.308 93.178,408.883 C91.725,408.461 90.305,408.133 88.908,407.909 C87.51,407.687 86.193,407.57 84.943,407.57 C80.604,407.57 78.437,408.943 78.437,411.69 C78.437,412.835 78.82,413.721 79.59,414.345 C80.365,414.97 81.4,415.552 82.693,416.103 C83.047,416.25 83.832,416.553 85.057,417.004 C86.279,417.446 87.674,417.988 89.25,418.609 C90.82,419.236 92.402,419.895 94,420.594 C95.594,421.293 96.943,421.944 98.041,422.54 C100.887,424.086 102.982,425.882 104.326,427.925 C105.674,429.971 106.346,432.593 106.346,435.785 C106.346,441.026 104.592,445.205 101.076,448.318 C97.555,451.437 92.478,453 85.848,453 C84.494,453 82.928,452.92 81.129,452.772 C79.33,452.622 77.467,452.339 75.555,451.908 C73.633,451.492 71.697,450.94 69.754,450.265 C67.809,449.593 65.988,448.733 64.287,447.682 L67.131,435.113 C68.486,435.86 69.98,436.522 71.621,437.098 C73.27,437.672 74.914,438.143 76.562,438.52 C78.209,438.892 79.807,439.174 81.352,439.379 C82.9,439.579 84.271,439.673 85.469,439.673 C87.965,439.673 89.775,439.277 90.896,438.479 C92.018,437.682 92.576,436.608 92.576,435.261 C92.576,434.116 92.219,433.201 91.492,432.528 C90.766,431.856 89.684,431.248 88.236,430.697 C87.787,430.548 87.027,430.282 85.957,429.913 C84.879,429.533 83.676,429.085 82.328,428.565 C80.979,428.038 79.58,427.481 78.133,426.877 C76.688,426.28 75.393,425.682 74.242,425.086 C71.297,423.588 68.99,421.731 67.32,419.511 C65.652,417.292 64.813,414.412 64.813,410.865 C64.813,408.169 65.301,405.802 66.271,403.756 C67.244,401.711 68.631,399.977 70.424,398.556 C72.219,397.131 74.385,396.059 76.898,395.335 C79.416,394.615 82.223,394.251 85.314,394.251 C88.562,394.251 91.779,394.673 94.969,395.526 C98.16,396.373 101.281,397.693 104.326,399.488 L101.33,412.137" id="Fill-5" fill="#0A0B09"></path>
        <path d="M157.234,412.137 C156.039,411.49 154.744,410.892 153.346,410.34 C151.949,409.79 150.529,409.308 149.078,408.883 C147.625,408.461 146.205,408.133 144.814,407.909 C143.416,407.687 142.094,407.57 140.844,407.57 C136.504,407.57 134.336,408.943 134.336,411.69 C134.336,412.835 134.721,413.721 135.49,414.345 C136.266,414.97 137.299,415.552 138.594,416.103 C138.947,416.25 139.732,416.553 140.963,417.004 C142.18,417.446 143.574,417.988 145.15,418.609 C146.721,419.236 148.303,419.895 149.9,420.594 C151.494,421.293 152.844,421.944 153.941,422.54 C156.785,424.086 158.883,425.882 160.227,427.925 C161.576,429.971 162.246,432.593 162.246,435.785 C162.246,441.026 160.492,445.205 156.977,448.318 C153.453,451.437 148.379,453 141.746,453 C140.398,453 138.828,452.92 137.029,452.772 C135.236,452.622 133.371,452.339 131.455,451.908 C129.537,451.492 127.604,450.94 125.654,450.265 C123.709,449.593 121.887,448.733 120.188,447.682 L123.037,435.113 C124.387,435.86 125.881,436.522 127.527,437.098 C129.17,437.672 130.816,438.143 132.463,438.52 C134.111,438.892 135.707,439.174 137.252,439.379 C138.801,439.579 140.172,439.673 141.369,439.673 C143.865,439.673 145.674,439.277 146.797,438.479 C147.918,437.682 148.482,436.608 148.482,435.261 C148.482,434.116 148.119,433.201 147.398,432.528 C146.672,431.856 145.582,431.248 144.137,430.697 C143.693,430.548 142.928,430.282 141.855,429.913 C140.783,429.533 139.576,429.085 138.227,428.565 C136.883,428.038 135.48,427.481 134.039,426.877 C132.588,426.28 131.293,425.682 130.145,425.086 C127.197,423.588 124.891,421.731 123.221,419.511 C121.551,417.292 120.719,414.412 120.719,410.865 C120.719,408.169 121.199,405.802 122.176,403.756 C123.145,401.711 124.533,399.977 126.324,398.556 C128.119,397.131 130.279,396.059 132.799,395.335 C135.318,394.615 138.123,394.251 141.217,394.251 C144.461,394.251 147.68,394.673 150.875,395.526 C154.061,396.373 157.188,397.693 160.227,399.488 L157.234,412.137" id="Fill-6" fill="#0A0B09"></path>
        <polyline id="Fill-7" fill="#0A0B09" points="215.758 395 215.758 408.994 192.031 408.994 192.031 416.177 215.461 416.177 215.461 429.576 192.031 429.576 192.031 438.256 215.98 438.256 215.98 452.249 178.34 452.249 178.34 395 215.758 395"></polyline>
        <polyline id="Fill-8" fill="#0A0B09" points="271.436 395 271.436 408.994 257.367 408.994 257.367 452.249 243.592 452.249 243.592 408.994 229.604 408.994 229.604 395 271.436 395"></polyline>
        <polyline id="Fill-9" fill="#0A0B09" points="287.299 394.251 320.006 423.211 320.006 395 333.17 395 333.17 453 332.195 453 299.572 423.961 299.572 452.249 286.404 452.249 286.404 394.251 287.299 394.251"></polyline>
        <path d="M376.426,408.244 C374.482,408.244 372.711,408.597 371.117,409.291 C369.52,409.991 368.143,411.003 367,412.321 C365.854,413.645 364.969,415.241 364.34,417.116 C363.717,418.985 363.404,421.119 363.404,423.514 C363.404,425.907 363.717,428.064 364.34,429.985 C364.969,431.911 365.854,433.529 367,434.85 C368.143,436.176 369.525,437.196 371.15,437.915 C372.775,438.642 374.557,439.002 376.502,439.002 C378.398,439.002 380.143,438.668 381.742,437.993 C383.338,437.321 384.709,436.324 385.859,434.999 C387.002,433.678 387.906,432.068 388.551,430.171 C389.201,428.274 389.525,426.11 389.525,423.663 C389.525,421.214 389.201,419.05 388.551,417.153 C387.906,415.254 387.002,413.645 385.859,412.321 C384.709,411.003 383.338,409.991 381.742,409.291 C380.143,408.597 378.373,408.244 376.426,408.244 Z M376.355,394.251 C380.695,394.251 384.52,395.075 387.84,396.722 C391.16,398.366 393.963,400.561 396.264,403.306 C398.557,406.05 400.283,409.191 401.461,412.737 C402.631,416.278 403.219,419.924 403.219,423.663 C403.219,427.401 402.631,431.033 401.461,434.551 C400.283,438.069 398.557,441.202 396.264,443.944 C393.963,446.686 391.16,448.879 387.84,450.528 C384.52,452.174 380.695,453 376.355,453 C372.018,453 368.17,452.164 364.828,450.488 C361.486,448.821 358.691,446.613 356.447,443.869 C354.205,441.128 352.504,437.981 351.361,434.438 C350.213,430.897 349.639,427.282 349.639,423.588 C349.639,419.844 350.225,416.205 351.395,412.658 C352.568,409.116 354.293,405.986 356.557,403.271 C358.824,400.552 361.621,398.366 364.941,396.722 C368.258,395.075 372.066,394.251 376.355,394.251 L376.355,394.251 Z" id="Fill-10" fill="#0A0B09"></path>
        <polyline id="Fill-11" fill="#0A0B09" points="457.631 395 457.631 408.994 443.557 408.994 443.557 452.249 429.787 452.249 429.787 408.994 415.793 408.994 415.793 395 457.631 395"></polyline>
        <polyline id="Fill-12" fill="#0A0B09" points="510.014 395 510.014 408.994 486.295 408.994 486.295 416.177 509.711 416.177 509.711 429.576 486.295 429.576 486.295 438.256 510.236 438.256 510.236 452.249 472.594 452.249 472.594 395 510.014 395"></polyline>
    </g>
</svg>