<svg width="600" height="149" viewBox="0 0 600 149" fill="none" xmlns="http://www.w3.org/2000/svg">
<g clip-path="url(#clip0_1637_70)">
<rect width="600" height="149" fill="white"/>
<g clip-path="url(#clip1_1637_70)">
<mask id="mask0_1637_70" style="mask-type:luminance" maskUnits="userSpaceOnUse" x="0" y="0" width="600" height="149">
<path d="M599.947 0H0V148.76H599.947V0Z" fill="white"/>
</mask>
<g mask="url(#mask0_1637_70)">
<mask id="mask1_1637_70" style="mask-type:luminance" maskUnits="userSpaceOnUse" x="0" y="0" width="600" height="149">
<path d="M599.947 0H0V148.76H599.947V0Z" fill="white"/>
</mask>
<g mask="url(#mask1_1637_70)">
<path d="M286.193 83.9673C282.918 65.2252 271.902 54.5154 256.321 54.5154C249.077 54.5154 243.023 56.9948 238.954 60.6639L239.053 31.2121C239.053 29.4271 237.565 27.9397 235.778 27.9397H221.19C219.403 27.9397 217.915 29.4271 217.915 31.2121V30.9146L217.716 118.972L217.418 134.144V133.946C217.418 135.731 218.907 137.218 220.693 137.218H220.594H249.176C278.75 137.218 292.048 117.386 286.193 83.9673ZM249.573 121.253H242.229H242.328C240.542 121.253 239.053 119.765 239.053 117.98V115.7L239.152 80.2982C239.152 74.1501 244.511 70.481 250.367 70.481C261.184 70.481 263.963 81.0913 265.452 89.4212C268.826 108.857 260.092 121.253 249.573 121.253Z" fill="#030D3F"/>
<path d="M409.848 131.665C409.848 133.45 411.236 134.838 413.025 134.937H424.635C426.42 134.838 427.811 133.45 427.811 131.665V119.369V75.2406L428.01 57.8869C428.01 56.1021 426.519 54.6145 424.734 54.6145H398.337C367.074 54.6145 353.775 77.1249 359.335 108.758C362.311 125.417 372.036 137.119 388.512 137.119C398.238 137.119 405.283 134.243 409.848 127.103V131.665ZM394.268 121.55C385.534 121.55 381.762 114.609 380.373 106.279C377.99 92.4952 379.481 70.9768 396.449 70.2826H403.597H403.497C405.283 70.2826 406.77 71.7699 406.77 73.555V74.2492L406.869 110.047C406.572 116.096 402.304 121.55 394.268 121.55Z" fill="#030D3F"/>
<path d="M477.431 74.0509C479.217 74.3485 480.807 73.8526 481.104 72.0675L483.286 60.4655C483.782 58.9779 483.088 57.3914 481.699 56.598C478.622 55.3088 474.75 54.5154 470.883 54.5154C463.636 54.5154 456.393 58.6804 452.919 67.9025L450.635 57.9861C450.139 56.1022 449.048 54.4162 447.263 54.3174H438.727C436.942 54.3174 435.55 55.8047 435.55 57.5898L435.352 70.2827L435.253 131.764C435.352 133.45 436.744 134.838 438.43 134.937H453.514C455.299 134.838 456.691 133.45 456.691 131.665L456.79 86.4463C456.988 77.2242 462.248 72.7617 469.888 72.7617C472.668 72.7617 475.345 73.2575 477.729 74.1501L477.431 74.0509Z" fill="#030D3F"/>
<path d="M593.841 74.0509C595.626 74.3485 597.216 73.8526 597.514 72.0675L599.696 60.4655C600.191 58.9779 599.497 57.3914 598.109 56.598C595.031 55.3088 591.16 54.5154 587.292 54.5154C580.046 54.5154 572.803 58.6804 569.329 67.9025L567.044 57.9861C566.549 56.1022 565.458 54.4162 563.673 54.3174H555.137C553.352 54.3174 551.96 55.8047 551.96 57.5898L551.762 70.2827L551.663 131.764C551.762 133.45 553.154 134.838 554.839 134.937H569.725C571.511 134.838 572.902 133.45 572.902 131.665L573.001 86.4463C573.2 77.2242 578.459 72.7617 586.099 72.7617C588.879 72.7617 591.56 73.2575 593.94 74.1501L593.841 74.0509Z" fill="#030D3F"/>
<path d="M544.915 130.078C546.502 129.186 546.899 127.401 546.106 125.814L541.144 116.989C540.251 115.501 538.367 115.204 536.876 115.997C532.806 118.476 527.448 120.856 520.8 120.856C509.289 120.856 504.823 113.022 503.332 104.692C521.593 104.098 550.076 99.9326 545.411 73.4559C543.329 61.556 533.401 54.5154 518.912 54.5154C490.135 54.5154 477.233 79.604 481.897 105.981C485.074 124.029 496.486 137.218 518.02 137.218C531.12 137.218 540.35 133.053 544.915 130.078ZM518.416 69.7868C522.287 69.7868 525.762 71.9683 526.456 76.1332C528.142 85.5537 515.243 88.6278 506.013 89.322C504.225 89.322 503.034 88.2311 503.034 86.0496C504.525 78.3147 508.691 69.7868 518.416 69.7868Z" fill="#030D3F"/>
<path d="M355.067 130.078C356.654 129.186 357.051 127.401 356.257 125.814L351.295 116.989C350.403 115.501 348.515 115.204 347.028 115.997C342.958 118.476 337.6 120.856 330.952 120.856C319.439 120.856 314.973 113.022 313.484 104.692C331.745 104.098 360.228 99.9326 355.563 73.4559C353.477 61.556 343.553 54.5154 329.065 54.5154C300.285 54.5154 287.384 79.604 292.048 105.981C295.224 124.029 306.637 137.218 328.172 137.218C341.371 137.218 350.502 133.053 355.067 130.078ZM328.668 69.7868C332.538 69.7868 336.013 71.9683 336.707 76.1332C338.393 85.5537 325.492 88.6278 316.263 89.322C314.477 89.322 313.286 88.2311 313.286 86.0496C314.675 78.3147 318.942 69.7868 328.668 69.7868Z" fill="#030D3F"/>
<path d="M25.9482 75.1977L29.0869 78.3944C29.6754 78.9756 30.362 79.2662 31.1467 79.2662C31.2448 79.2662 31.3429 79.2662 31.4409 79.2662C32.0294 79.1693 32.6179 78.9756 33.1084 78.4913C33.6968 78.007 33.991 77.2318 33.991 76.5538C33.991 75.7789 33.6968 75.1005 33.2066 74.5194L29.9697 71.2258C28.7927 72.7759 27.4195 74.132 25.9482 75.1977Z" fill="url(#paint0_linear_1637_70)"/>
<path d="M67.4165 40.1286L70.6532 48.9835C71.0456 50.0539 72.1243 50.8324 73.3015 50.8324C73.5957 50.8324 73.9881 50.7349 74.2823 50.6377C75.7534 50.1511 76.5382 48.4969 75.9497 47.0374L72.713 38.28C71.0456 39.1557 69.28 39.7395 67.4165 40.1286Z" fill="url(#paint1_linear_1637_70)"/>
<path d="M117.552 37.5442L113.787 47.9412C113.292 49.4126 113.985 51.0801 115.471 51.5703C115.768 51.6685 116.165 51.7663 116.462 51.7663H116.561C117.75 51.7663 118.741 50.9819 119.137 49.9029L122.902 39.604C121.713 39.3098 120.524 39.0156 119.335 38.5253C118.741 38.133 118.146 37.8387 117.552 37.5442Z" fill="url(#paint2_linear_1637_70)"/>
<path d="M153.239 89.1174C153.435 89.1174 153.534 89.1174 153.73 89.1174C154.612 89.1174 155.397 88.7214 155.985 88.0279L159.419 83.7677C157.751 82.777 156.28 81.489 155.103 79.9036L151.474 84.3621C150.493 85.5508 150.689 87.4335 151.866 88.4242C152.258 88.8203 152.749 89.0186 153.239 89.1174Z" fill="url(#paint3_linear_1637_70)"/>
<path d="M154.254 102.97C150.785 101.677 147.019 101.18 143.352 101.478C139.685 101.777 136.018 102.97 132.649 104.76C132.252 104.959 131.757 104.859 131.559 104.462C131.36 104.064 131.46 103.666 131.757 103.368C133.144 102.274 134.631 101.379 136.217 100.584V96.1092C136.217 72.6434 117.188 53.5525 93.7994 53.5525C74.1766 53.5525 57.3286 66.777 52.5716 85.6689C53.959 86.166 55.3465 86.7627 56.6351 87.4586C59.2116 88.7512 61.5901 90.4418 63.7706 92.4302C65.8516 94.4189 67.7346 96.6064 69.2212 99.0923C69.6179 99.7882 69.4195 100.584 68.7256 100.981C68.1313 101.379 67.3382 101.18 66.9418 100.683C65.2572 98.5951 63.4731 96.8054 61.3921 95.2143C59.4099 93.6236 57.1303 92.2315 54.8509 91.2371C50.1931 89.1489 45.0397 88.1548 39.9852 88.5525C34.9309 88.8507 29.9755 90.6404 25.714 93.3251C23.6328 94.7171 21.6507 96.4077 19.9659 98.2966C18.182 100.186 16.7945 102.274 15.6053 104.561C10.9473 113.609 11.1455 125.044 16.5963 133.695C19.1731 138.07 22.9391 141.649 27.2997 144.234C31.6603 146.82 36.7147 148.112 41.8681 148.212L146.127 148.709C153.362 148.709 160.498 145.229 164.759 139.362C169.219 133.595 170.507 125.74 168.525 118.68C166.642 111.521 161.191 105.456 154.254 102.97Z" fill="url(#paint4_linear_1637_70)"/>
<path d="M55.6714 34.3111C57.8691 35.2103 60.0667 35.7098 62.3646 35.7098C69.4575 35.7098 75.8512 31.4141 78.6482 24.9205C82.3444 15.9295 78.1487 5.63984 69.1577 1.94352C67.0598 1.04442 64.7623 0.544922 62.4644 0.544922C55.3715 0.544922 48.9778 4.84063 46.1808 11.3341C44.3824 15.6298 44.3824 20.425 46.1808 24.8206C47.9788 29.1163 51.3755 32.513 55.6714 34.3111Z" fill="#9DACE3"/>
<path d="M121.115 34.3111C123.313 35.2103 125.51 35.7098 127.808 35.7098C134.901 35.7098 141.295 31.4141 144.092 24.9205C147.788 15.9295 143.592 5.63984 134.601 1.94352C132.404 1.04442 130.206 0.544922 127.908 0.544922C120.815 0.544922 114.422 4.84063 111.624 11.3341C107.928 20.3251 112.124 30.6148 121.115 34.3111Z" fill="#9DACE3"/>
<path d="M177.323 63.5548C175.724 60.9575 173.227 59.0593 170.23 58.2599C169.331 58.0603 168.332 57.8606 167.433 57.8606C162.138 57.8606 157.542 61.457 156.244 66.5518C154.745 72.7456 158.442 78.9393 164.635 80.5376C165.535 80.7376 166.534 80.9373 167.433 80.9373C172.727 80.9373 177.323 77.3409 178.621 72.2461C179.42 69.3489 178.921 66.252 177.323 63.5548Z" fill="#9DACE3"/>
<path d="M28.8255 63.6094C30.7237 55.9168 26.0284 48.0249 18.336 46.1267C17.1372 45.8269 15.9384 45.7271 14.8395 45.7271C8.24614 45.7271 2.45192 50.2226 0.853519 56.6163C-0.0455831 60.3125 0.553817 64.2087 2.45192 67.5052C4.44991 70.8021 7.54683 73.1998 11.343 74.0986C12.5418 74.3985 13.7406 74.4983 14.8395 74.4983C21.5328 74.5981 27.2272 70.1026 28.8255 63.6094Z" fill="#9DACE3"/>
</g>
</g>
</g>
</g>
<defs>
<linearGradient id="paint0_linear_1637_70" x1="25.9098" y1="75.2989" x2="33.9408" y2="75.2989" gradientUnits="userSpaceOnUse">
<stop stop-color="#00A9E2"/>
<stop offset="0.1882" stop-color="#1981D7"/>
<stop offset="0.4572" stop-color="#394DC8"/>
<stop offset="0.6919" stop-color="#5027BE"/>
<stop offset="0.8802" stop-color="#5F10B7"/>
<stop offset="0.9987" stop-color="#6408B5"/>
</linearGradient>
<linearGradient id="paint1_linear_1637_70" x1="67.3818" y1="44.5706" x2="76.1633" y2="44.5706" gradientUnits="userSpaceOnUse">
<stop stop-color="#00A9E2"/>
<stop offset="0.1882" stop-color="#1981D7"/>
<stop offset="0.4572" stop-color="#394DC8"/>
<stop offset="0.6919" stop-color="#5027BE"/>
<stop offset="0.8802" stop-color="#5F10B7"/>
<stop offset="0.9987" stop-color="#6408B5"/>
</linearGradient>
<linearGradient id="paint2_linear_1637_70" x1="113.575" y1="44.6291" x2="122.974" y2="44.6291" gradientUnits="userSpaceOnUse">
<stop stop-color="#00A9E2"/>
<stop offset="0.1882" stop-color="#1981D7"/>
<stop offset="0.4572" stop-color="#394DC8"/>
<stop offset="0.6919" stop-color="#5027BE"/>
<stop offset="0.8802" stop-color="#5F10B7"/>
<stop offset="0.9987" stop-color="#6408B5"/>
</linearGradient>
<linearGradient id="paint3_linear_1637_70" x1="150.855" y1="84.5578" x2="159.398" y2="84.5578" gradientUnits="userSpaceOnUse">
<stop stop-color="#00A9E2"/>
<stop offset="0.1882" stop-color="#1981D7"/>
<stop offset="0.4572" stop-color="#394DC8"/>
<stop offset="0.6919" stop-color="#5027BE"/>
<stop offset="0.8802" stop-color="#5F10B7"/>
<stop offset="0.9987" stop-color="#6408B5"/>
</linearGradient>
<linearGradient id="paint4_linear_1637_70" x1="12.4264" y1="101.058" x2="169.546" y2="101.058" gradientUnits="userSpaceOnUse">
<stop stop-color="#00A9E2"/>
<stop offset="0.1882" stop-color="#1981D7"/>
<stop offset="0.4572" stop-color="#394DC8"/>
<stop offset="0.6919" stop-color="#5027BE"/>
<stop offset="0.8802" stop-color="#5F10B7"/>
<stop offset="0.9987" stop-color="#6408B5"/>
</linearGradient>
<clipPath id="clip0_1637_70">
<rect width="600" height="149" fill="white"/>
</clipPath>
<clipPath id="clip1_1637_70">
<rect width="600" height="148.76" fill="white"/>
</clipPath>
</defs>
</svg>
