<svg xmlns="http://www.w3.org/2000/svg" fill-rule="evenodd" stroke-linejoin="round" stroke-miterlimit="2" aria-hidden="true" clip-rule="evenodd" viewBox="0 0 103 110">
	<path fill="#0b1221" fill-rule="nonzero" d="M71.224 58.247a4.891 4.891 0 01-2.142.493 4.938 4.938 0 01-4.443-2.777.933.933 0 111.68-.816 3.067 3.067 0 004.089 1.419 3.068 3.068 0 001.419-4.092.934.934 0 111.681-.814 4.938 4.938 0 01-2.284 6.587m5.56-32.107l-5.866 8.602a.937.937 0 01-.676.404.949.949 0 01-.745-.258l-4.554-4.41-13.037 14.525a.928.928 0 01-.696.309c-.02 0-.04-.009-.06-.009-.021 0-.04.009-.062.009a.929.929 0 01-.695-.309L37.344 30.464 32.567 34.9a.92.92 0 01-.74.244.93.93 0 01-.668-.402l-5.864-8.602a.935.935 0 011.544-1.052l5.252 7.705 4.678-4.344a.888.888 0 01.678-.249c.25.011.485.123.652.309L51.15 43.05 64.2 28.509a.934.934 0 01.662-.31c.26.008.501.088.682.263l4.455 4.311 5.242-7.685a.934.934 0 011.543 1.052M59.789 87.294l2.952 2.946-2.952 2.949-2.946-2.949 2.946-2.946zm-17.2 5.895l-2.947-2.947 2.947-2.95 2.948 2.95-2.948 2.947zM29.11 51.66a.934.934 0 111.681.814 3.068 3.068 0 001.419 4.092 3.04 3.04 0 002.337.138 3.044 3.044 0 001.751-1.557.936.936 0 011.682.816 4.935 4.935 0 01-6.585 2.284 4.938 4.938 0 01-2.285-6.587m58.473-19.637a.93.93 0 01-1.022-.984c.244-4.174-.789-7.632-1.808-9.963l-4.184-5.922 6.418-4.901-11.867-.985 3.102-2.785-9.772-.377L70.404.075 56.257 5.808l-10.371-.015L31.756.075l1.955 6.031-9.772.377 3.102 2.785-11.868.985 6.419 4.901-3.9 5.52c-1.057 2.291-2.208 5.847-1.994 10.176a.927.927 0 01.032.244c0 .519-.41.965-.944.933h-.01a.857.857 0 01-.089-.004l-4.695-.45-7.009 9.919 4.073-.558 2.026 10.412 5.474-3.016-5.512 12.745 5.119.075v8.673l5.474-3.771-1.172 15.085 5.624.528L25.5 92.823l.786-1.051 6.282-11.085a.934.934 0 011.208-.385c3.552 1.66 6.442 1.892 8.59.683 3.379-1.898 3.959-6.816 3.963-6.866.025-.194 2.14-17.893-6.523-26.943-3.855-4.03-9.339-5.782-16.284-5.215a.928.928 0 01-1.007-.854.933.933 0 01.855-1.007c7.547-.616 13.527 1.332 17.79 5.787 9.278 9.7 7.122 27.69 7.025 28.451-.024.222-.677 5.891-4.894 8.27-2.53 1.427-5.729 1.338-9.516-.261l-4.667 8.234 3.821 13.177 5.285-4.09 5.27 9.746 4.261-10.505 7.316-.024 3.614 10.529 5.272-9.746 5.285 4.09 3.861-13.319-4.585-8.092c-3.787 1.598-6.985 1.688-9.515.261-4.218-2.379-4.871-8.048-4.897-8.289-.094-.742-2.252-18.731 7.025-28.43 4.265-4.458 10.26-6.407 17.793-5.789a.934.934 0 01.855 1.007.94.94 0 01-1.007.854c-6.954-.565-12.431 1.186-16.286 5.215-8.663 9.051-6.547 26.749-6.524 26.927.007.066.586 4.984 3.966 6.882 2.147 1.207 5.037.977 8.589-.683a.935.935 0 011.209.385l6.666 11.768.276.368 1.414-11.158 5.624-.528-1.172-15.085 5.471 3.771V61.15l5.121-.075-5.511-12.745 5.473 3.016 2.026-10.412 4.074.558-7.002-9.91-4.593.441zm14.158-14.733c-.01-.051-.817-4.116-4.221-7.614.578 1.693.922 3.638.25 5.096-.348.755-1.126 1.715-2.908 2.01l-9.046 1.006c1.202 2.05 3.208 6.337 3.137 12.02l8.402-.805c.097-.015 2.376-.394 3.831-2.605 1.38-2.099 1.572-5.144.555-9.108m-88.19 12.518c-.07-5.683 1.937-9.97 3.139-12.02l-9.048-1.006c-1.782-.295-2.561-1.255-2.908-2.01-.673-1.458-.329-3.403.249-5.096C1.578 13.174.772 17.239.762 17.29c-1.017 3.964-.826 7.009.556 9.108 1.454 2.211 3.734 2.59 3.831 2.605l8.402.805z"/>
</svg>
