<?xml version="1.0" encoding="utf-8"?>
<!-- Generator: Adobe Illustrator 16.0.3, SVG Export Plug-In . SVG Version: 6.00 Build 0)  -->
<!DOCTYPE svg PUBLIC "-//W3C//DTD SVG 1.1//EN" "http://www.w3.org/Graphics/SVG/1.1/DTD/svg11.dtd">
<svg version="1.1" id="Layer_1" xmlns="http://www.w3.org/2000/svg" xmlns:xlink="http://www.w3.org/1999/xlink" x="0px" y="0px"
	 width="1065.755px" height="344.916px" viewBox="0 0 1065.755 344.916" enable-background="new 0 0 1065.755 344.916"
	 xml:space="preserve">
<g id="Shield">
	<polygon fill="#31428A" points="76.988,210.687 75.43,210.687 0,157.071 0,141.619 76.988,87.873 76.988,119.292 32.326,149.277 
		76.988,179.401 	"/>
	<polygon fill="#31428A" points="276.167,157.069 200.604,210.687 198.784,210.687 198.784,179.401 243.71,149.279 198.784,119.289 
		198.784,87.871 200.604,87.871 276.167,141.621 	"/>
	<polygon fill="#31428A" points="37.985,127.144 37.985,37.987 238.178,37.987 238.178,100.031 276.165,127.055 276.165,0 0,0 
		0,153.661 	"/>
	<polygon fill="#31428A" points="238.18,180.618 238.18,243.265 138.083,301.055 37.987,243.265 37.987,198.633 0.002,171.63 
		0.002,265.195 138.083,344.916 276.167,265.195 276.167,153.659 	"/>
	<polygon fill="#31428A" points="184.023,69.176 119.521,230.951 92.141,230.951 92.141,229.489 156.642,67.613 184.023,67.613 	"/>
</g>
<g>
	<rect x="302.047" y="72.398" fill="none" width="779.541" height="158.552"/>
	<path fill="#31428A" d="M440.756,219.71c-13.263,5.019-28.316,7.527-45.161,7.527c-55.198,0-82.796-26.702-82.796-80.107
		c0-50.538,27.598-75.806,82.796-75.806c16.845,0,31.898,2.51,45.161,7.527v25.806c-13.263-5.734-27.599-8.602-43.011-8.602
		c-36.918,0-55.376,17.026-55.376,51.075c0,36.918,18.458,55.376,55.376,55.376c15.412,0,29.748-2.866,43.011-8.602V219.71z"/>
	<path fill="#31428A" d="M459.574,169.71c0-37.849,18.638-56.774,55.914-56.774c37.275,0,55.914,18.925,55.914,56.774
		c0,37.779-18.639,56.667-55.914,56.667C478.354,226.376,459.717,207.489,459.574,169.71z M515.488,204.656
		c18.279,0,27.419-11.791,27.419-35.376c0-23.011-9.14-34.516-27.419-34.516c-18.28,0-27.419,11.505-27.419,34.516
		C488.068,192.865,497.208,204.656,515.488,204.656z"/>
	<path fill="#31428A" d="M692.907,219.387c-17.277,4.516-34.158,6.774-50.645,6.774c-36.489,0-54.731-19.57-54.731-58.709
		c0-36.129,17.85-54.194,53.548-54.194c7.598,0,15.376,1.793,23.333,5.376V72.398h28.495V219.387z M664.413,142.721
		c-5.879-3.871-13.263-5.806-22.15-5.806c-17.707,0-26.56,9.929-26.56,29.785c0,23.585,9.21,35.376,27.635,35.376
		c7.455,0,14.479-1.039,21.075-3.118V142.721z"/>
	<path fill="#31428A" d="M767.423,113.258c34.264,0,51.398,17.492,51.398,52.473c0,4.661-0.323,9.32-0.968,13.979h-74.946
		c0,15.914,11.684,23.871,35.054,23.871c11.398,0,22.796-1.075,34.193-3.226v22.581c-9.964,2.15-22.08,3.226-36.344,3.226
		c-40.933,0-61.398-19.247-61.398-57.742C714.413,131.646,732.083,113.258,767.423,113.258z M742.907,159.925h48.172v-0.86
		c0-15.627-7.886-23.441-23.656-23.441C752.37,135.624,744.198,143.726,742.907,159.925z"/>
	<path fill="#31428A" d="M834.843,191c0-22.436,16.344-33.656,49.032-33.656c7.67,0,15.34,0.718,23.011,2.151V151
		c0-10.107-7.276-15.161-21.828-15.161c-12.33,0-26.021,1.792-41.075,5.376v-22.581c15.054-3.583,28.745-5.376,41.075-5.376
		c33.549,0,50.323,12.403,50.323,37.205v75.699h-16.56l-10.107-10.107c-9.822,6.739-20.646,10.107-32.473,10.107
		C848.642,226.162,834.843,214.441,834.843,191z M883.875,176.699c-13.693,0-20.538,4.661-20.538,13.979
		c0,10.037,5.734,15.054,17.205,15.054c9.462,0,18.242-2.938,26.344-8.817V178.85C899.717,177.417,892.047,176.699,883.875,176.699z
		"/>
	<path fill="#31428A" d="M962.262,226.162V113.258h22.043l3.549,16.559c10.823-11.038,23.153-16.559,36.989-16.559
		c26.737,0,40.107,13.908,40.107,41.721v71.183h-28.494v-71.183c0-12.473-6.202-18.71-18.603-18.71
		c-9.247,0-18.279,3.693-27.097,11.075v78.817H962.262z"/>
</g>
<g>
</g>
<g>
</g>
<g>
</g>
<g>
</g>
<g>
</g>
<g>
</g>
<g>
</g>
<g>
</g>
<g>
</g>
<g>
</g>
<g>
</g>
<g>
</g>
<g>
</g>
<g>
</g>
<g>
</g>
</svg>
