<svg width="1372" height="308" viewBox="0 0 1372 308" fill="none" xmlns="http://www.w3.org/2000/svg">
<path d="M1371.18 36.7095V1.01953C1314.31 1.01953 1268.05 47.2795 1268.05 104.15H1303.74C1303.75 66.9595 1334 36.7095 1371.18 36.7095Z" fill="url(#paint0_linear)"/>
<path d="M1164.88 1.00977V36.6998C1202.07 36.6998 1232.32 66.9498 1232.32 104.14H1268.01C1268.01 47.2798 1221.75 1.00977 1164.88 1.00977Z" fill="url(#paint1_linear)"/>
<path d="M0 120.27C0 49.57 49.89 0 120.93 0C154.63 0 184.04 12.23 207.16 35.68L181.39 59.47C165.53 43.61 146.04 35.35 122.25 35.35C73.02 35.35 38.99 70.04 38.99 120.26C38.99 170.48 73.02 205.17 122.25 205.17C145.38 205.17 167.84 196.25 184.04 180.39L208.82 206.16C185.69 228.96 156.29 240.52 121.27 240.52C49.55 240.53 0 190.97 0 120.27Z" fill="black"/>
<path d="M383.46 216.76L400.64 190C415.18 201.56 436.65 208.17 458.13 208.17C478.95 208.17 490.84 201.56 490.84 189.67C490.84 178.11 480.27 172.49 455.16 169.85C412.54 165.89 388.42 148.04 388.42 119.63C388.42 89.8902 416.83 69.7402 459.12 69.7402C483.9 69.7402 505.71 76.0202 523.88 88.5702L507.69 115C493.15 105.75 477.62 101.12 460.77 101.12C437.31 101.12 424.76 107.73 424.76 119.62C424.76 130.19 434.34 135.81 458.13 138.45C506.37 143.74 527.51 159.27 527.51 189.99C527.51 220.39 499.43 240.87 457.14 240.87C429.71 240.88 405.26 232.95 383.46 216.76Z" fill="black"/>
<path d="M545.9 155.31C545.9 104.76 580.92 70.0698 632.8 70.0698C656.59 70.0698 677.07 78.3298 694.58 95.1798L672.11 119.3C662.2 109.39 647.99 103.77 633.45 103.77C603.71 103.77 582.9 124.92 582.9 155.31C582.9 186.04 603.38 206.85 633.45 206.85C649.31 206.85 663.85 200.9 673.76 190L696.56 214.78C678.39 232.29 658.23 240.55 633.12 240.55C580.26 240.55 545.9 206.85 545.9 155.31Z" fill="black"/>
<path d="M849.16 73.6998L848.83 95.5098C836.27 79.6498 814.8 70.0698 789.36 70.0698C741.45 70.0698 708.41 105.09 708.41 155.32C708.41 205.54 741.45 240.56 789.36 240.56C814.47 240.56 836.27 230.98 848.83 215.12L849.16 236.93H882.2V73.6998H849.16ZM795.3 206.85C765.89 206.85 745.41 185.7 745.41 155.31C745.41 124.91 765.9 103.77 795.3 103.77C824.7 103.77 845.19 124.92 845.19 155.31C845.19 185.7 824.71 206.85 795.3 206.85Z" fill="black"/>
<path d="M963.63 1.00977H926.63V236.73H963.63V1.00977Z" fill="black"/>
<path d="M1080.96 69.3999C1030.41 69.3999 996.38 103.76 996.38 154.31C996.38 206.51 1031.07 240.54 1084.93 240.54C1113.01 240.54 1139.11 229.64 1155.3 212.13L1132.83 190.32C1122.92 200.56 1104.42 207.17 1085.91 207.17C1057.17 207.17 1037.34 191.97 1034.37 168.18H1164.88C1170.17 107.07 1138.45 69.3999 1080.96 69.3999ZM1034.7 139.45C1039.33 115.33 1056.18 101.45 1081.95 101.45C1109.05 101.45 1126.89 116.32 1129.53 139.45H1034.7Z" fill="black"/>
<path d="M302.25 268.95L381.25 73.7002H341.1L295.42 195.52L249.74 73.7002H209.91L276.2 239.41L266.87 260.84C262.42 270.49 254.38 274.79 240.82 274.79C238.17 274.79 233.78 274.35 229.6 273.15L224.2 305.53C229.76 306.51 238 307.23 242.16 307.24C274.39 306.46 291.8 295.37 302.25 268.95Z" fill="black"/>
<defs>
<linearGradient id="paint0_linear" x1="1139.18" y1="52.5769" x2="1362.38" y2="52.5769" gradientUnits="userSpaceOnUse">
<stop offset="0.1069" stop-color="#0F26AA"/>
<stop offset="0.8803" stop-color="#FF4A56"/>
</linearGradient>
<linearGradient id="paint1_linear" x1="1139.18" y1="52.5772" x2="1362.38" y2="52.5772" gradientUnits="userSpaceOnUse">
<stop offset="0.1069" stop-color="#0F26AA"/>
<stop offset="0.8803" stop-color="#FF4A56"/>
</linearGradient>
</defs>
</svg>
