<svg width="747" height="245" viewBox="0 0 747 245" fill="none" xmlns="http://www.w3.org/2000/svg">
<path d="M224.947 157.558C232.101 157.558 238.667 155.696 244.449 152.168V125.413H233.375V145.602C230.729 146.582 228.181 146.876 225.339 146.876C215.441 146.876 209.952 140.702 209.952 124.531C209.952 108.851 215.343 102.775 225.339 102.775C229.749 102.775 234.257 104.049 238.373 106.401L243.273 96.7969C237.687 93.4648 231.807 92.0928 225.143 92.0928C207.894 92.0928 197.702 103.363 197.702 124.531C197.702 147.17 207.796 157.558 224.947 157.558Z" fill="#081736"/>
<path d="M263.073 101.109C267.483 101.109 269.835 98.2669 269.835 94.5428C269.835 90.9167 267.483 87.8787 263.073 87.8787C258.761 87.8787 256.311 90.9167 256.311 94.5428C256.311 98.2669 258.761 101.109 263.073 101.109ZM268.855 107.675H257.291V156.578H268.855V107.675Z" fill="#081736"/>
<path d="M313.493 107.675H298.793V95.4248H290.365L288.013 107.675L278.702 109.047V117.377H287.425V141.192C287.425 152.266 293.403 157.558 303.203 157.558C307.613 157.558 311.925 156.382 315.649 154.324L312.415 145.21C309.573 146.582 307.123 147.17 304.771 147.17C300.753 147.17 298.793 145.504 298.793 140.702V117.377H313.493V107.675Z" fill="#081736"/>
<path d="M350.225 157.558C357.379 157.558 363.945 155.696 369.727 152.168V125.413H358.653V145.602C356.007 146.582 353.459 146.876 350.617 146.876C340.719 146.876 335.231 140.702 335.231 124.531C335.231 108.851 340.621 102.775 350.617 102.775C355.027 102.775 359.535 104.049 363.651 106.401L368.551 96.7969C362.965 93.4648 357.085 92.0928 350.421 92.0928C333.173 92.0928 322.98 103.363 322.98 124.531C322.98 147.17 333.075 157.558 350.225 157.558Z" fill="#081736"/>
<path d="M382.177 107.675V141.094C382.177 151.776 387.469 157.558 396.779 157.558C401.581 157.558 405.893 155.99 411.773 150.698V156.578H422.946V107.675H411.381V142.368C406.873 145.798 403.247 146.974 400.307 146.974C395.897 146.974 393.741 144.818 393.741 139.526V107.675H382.177Z" fill="#081736"/>
<path d="M475.519 156.578V124.923C475.519 111.987 468.953 106.695 457.095 106.695C451.117 106.695 444.158 108.459 437.102 111.889L440.63 121.003C446.903 118.161 451.509 116.985 455.331 116.985C461.701 116.985 464.249 119.435 464.249 125.707V128.55H453.175C441.022 128.55 435.436 135.018 435.436 143.054C435.436 151.874 441.708 157.558 450.235 157.558C455.723 157.558 460.329 155.794 464.543 151.188V156.578H475.519ZM453.371 148.444C449.157 148.444 446.609 146.386 446.609 142.368C446.609 139.036 448.667 136.586 453.861 136.586H464.249V143.838C460.329 147.17 457.095 148.444 453.371 148.444Z" fill="#081736"/>
<path d="M501.514 156.578V122.375C506.61 119.043 511.608 117.965 518.077 117.965V106.695C512.197 106.695 507.296 108.263 501.122 114.143V107.675H489.95V156.578H501.514Z" fill="#081736"/>
<path d="M568.609 156.578V90.1327H557.045V109.047C553.713 107.479 550.381 106.695 546.755 106.695C534.994 106.695 525.684 114.045 525.684 132.274C525.684 150.894 533.818 157.558 544.108 157.558C549.009 157.558 553.321 155.794 557.535 151.286V156.578H568.609ZM547.441 147.268C540.58 147.268 537.346 143.74 537.346 132.274C537.346 120.219 540.874 116.495 548.813 116.495C551.361 116.495 554.203 117.083 557.045 118.259V143.642C553.713 146.386 550.479 147.268 547.441 147.268Z" fill="#081736"/>
<path d="M589.428 101.109C593.838 101.109 596.19 98.2669 596.19 94.5428C596.19 90.9167 593.838 87.8787 589.428 87.8787C585.115 87.8787 582.665 90.9167 582.665 94.5428C582.665 98.2669 585.115 101.109 589.428 101.109ZM595.21 107.675H583.645V156.578H595.21V107.675Z" fill="#081736"/>
<path d="M647.884 156.578V124.923C647.884 111.987 641.318 106.695 629.46 106.695C623.482 106.695 616.524 108.459 609.467 111.889L612.996 121.003C619.268 118.161 623.874 116.985 627.696 116.985C634.066 116.985 636.614 119.435 636.614 125.707V128.55H625.54C613.388 128.55 607.801 135.018 607.801 143.054C607.801 151.874 614.074 157.558 622.6 157.558C628.088 157.558 632.694 155.794 636.908 151.188V156.578H647.884ZM625.736 148.444C621.522 148.444 618.974 146.386 618.974 142.368C618.974 139.036 621.032 136.586 626.226 136.586H636.614V143.838C632.694 147.17 629.46 148.444 625.736 148.444Z" fill="#081736"/>
<path d="M673.879 156.578V121.983C678.584 118.455 682.504 117.279 685.542 117.279C689.952 117.279 692.108 119.533 692.108 124.825V156.578H703.672V123.159C703.672 112.477 698.38 106.695 689.07 106.695C684.17 106.695 679.564 108.263 673.487 113.653V107.675H662.315V156.578H673.879Z" fill="#081736"/>
<path fill-rule="evenodd" clip-rule="evenodd" d="M139.368 45.8812C134.327 41.4879 126.765 41.54 121.739 45.8988C117.698 49.4034 112.521 51.3331 107.159 51.3331C101.799 51.3331 96.6223 49.4031 92.583 45.8989C87.5527 41.5365 79.989 41.4913 74.9491 45.8841L74.9238 45.9061L74.8988 45.9285C59.6246 59.6031 57.8855 75.6502 58.3473 85.0731L52.1355 89.665C46.565 93.7124 43.248 100.215 43.248 107.084V115.363C43.248 141.949 53.6816 168.241 71.0493 183.901C84.2443 195.798 95.85 202.368 107.157 202.388H107.175C118.472 202.368 130.078 195.797 143.271 183.901C160.64 168.241 171.072 141.949 171.072 115.363V107.084C171.072 100.221 167.762 93.7164 162.211 89.6842L155.983 85.0806C156.421 75.3345 154.339 59.2047 139.408 45.9159L139.388 45.8985L139.368 45.8812Z" fill="white"/>
<path fill-rule="evenodd" clip-rule="evenodd" d="M104.247 79.1167C103.571 78.4242 102.671 77.5029 101.35 76.2984C92.4192 68.1533 80.6158 65.9011 71.1597 72.2872C73.121 65.4555 77.0189 59.2452 82.5018 54.4669C83.2149 53.8456 84.3099 53.8605 85.0503 54.5023C91.1997 59.8161 98.8547 62.7441 107.158 62.7441C115.462 62.7441 123.138 59.8161 129.267 54.5023C130.006 53.8605 131.102 53.8456 131.815 54.4669C137.298 59.2452 141.196 65.4555 143.157 72.2872C133.701 65.9011 121.898 68.1533 112.967 76.2984C111.646 77.5029 110.746 78.4242 110.07 79.1167C108.733 80.485 108.269 80.9596 107.158 80.9596C106.048 80.9596 105.584 80.485 104.247 79.1167ZM77.1854 114.445C84.1191 120.925 92.9361 124.897 102.472 125.885C106.467 132.658 108.666 141.183 108.666 150.005C108.666 163.609 102.999 176.611 93.0866 185.946C88.8068 183.409 84.1177 179.839 78.9688 175.196C70.4201 167.488 63.7533 156.55 59.6514 144.125L77.1854 114.445Z" fill="#32466E"/>
<path fill-rule="evenodd" clip-rule="evenodd" d="M59.1236 99.1261L65.0595 94.7388C66.6006 100.042 69.1299 105.004 72.5365 109.375L57.2252 135.29C55.8018 128.842 55.0449 122.131 55.0449 115.363V107.085C55.0449 103.906 56.5217 101.012 59.1236 99.1261ZM149.349 94.8048L155.22 99.1458C157.796 101.012 159.274 103.905 159.274 107.084V115.362C159.274 132.421 154.484 149.125 146.257 162.101C148.703 155.19 150.093 147.924 150.093 141.014C150.093 130.114 146.97 119.619 141.052 110.54C144.97 105.892 147.816 100.161 149.349 94.8048Z" fill="white"/>
<path fill-rule="evenodd" clip-rule="evenodd" d="M146.255 162.101C154.484 149.124 159.274 132.421 159.274 115.363V107.084C159.274 103.905 157.796 101.013 155.22 99.1462L149.348 94.8052C147.815 100.161 144.969 105.892 141.051 110.541C146.97 119.619 150.093 130.115 150.093 141.013C150.093 147.923 148.701 155.189 146.255 162.101ZM107.165 190.642C111.996 190.635 117.581 188.49 124.05 184.16C135.183 175.054 143.504 156.691 143.504 141.013C143.504 131.894 141.024 123.098 136.32 115.383C129.066 121.733 119.89 125.447 110.007 126.042C113.408 133.138 115.255 141.471 115.255 150.006C115.255 164.611 109.489 178.6 99.3303 189.023C102.137 190.095 104.746 190.639 107.165 190.642ZM78.9672 175.196C84.1175 179.838 88.8052 183.408 93.0864 185.946C102.998 176.612 108.665 163.609 108.665 150.006C108.665 141.182 106.467 132.657 102.471 125.885C92.9358 124.898 84.1175 120.926 77.1852 114.446L59.6512 144.124C63.7517 156.55 70.4199 167.488 78.9672 175.196ZM55.0442 107.084V115.363C55.0442 122.132 55.8011 128.844 57.2245 135.29L72.5358 109.375C69.1306 105.004 66.6013 100.041 65.0601 94.7384L59.1242 99.1257C56.521 101.011 55.0442 103.905 55.0442 107.084ZM112.935 85.7559C110.862 88.2663 109.239 90.2313 107.158 90.2313C105.077 90.2313 103.455 88.267 101.382 85.7572C100.527 84.7221 99.596 83.5943 98.5241 82.4731C91.9203 75.4671 83.4783 73.7135 77.3398 76.1442C72.0965 78.2207 69.5795 83.014 70.2761 89.1249C71.5736 96.7359 75.1048 103.656 80.5562 109.057C87.5228 115.961 96.8735 119.762 107.158 119.762C117.443 119.762 126.794 115.961 133.761 109.057C139.211 103.656 142.742 96.7359 144.041 89.1249C144.736 83.014 142.22 78.2207 136.976 76.1442C130.84 73.7135 122.398 75.4671 115.793 82.4731C114.721 83.5938 113.79 84.7212 112.935 85.7559ZM129.266 54.5021C123.138 59.8159 115.461 62.7439 107.158 62.7439C98.854 62.7439 91.2004 59.8159 85.0509 54.5021C84.3105 53.8603 83.2155 53.8454 82.5025 54.4667C77.0196 59.245 73.1216 65.4553 71.1603 72.287C80.6164 65.9009 92.4185 68.1545 101.35 76.2982C102.669 77.5014 103.569 78.4221 104.245 79.1143C105.584 80.4843 106.048 80.9594 107.159 80.9594C108.27 80.9594 108.733 80.4848 110.07 79.1165C110.747 78.4241 111.647 77.5027 112.968 76.2982C121.898 68.1545 133.7 65.9009 143.158 72.287C141.197 65.4553 137.297 59.245 131.816 54.4667C131.103 53.8454 130.006 53.8603 129.266 54.5021ZM150.731 87.4749L159.21 93.7424C163.458 96.8204 166.009 101.815 166.009 107.084V115.363C166.009 140.798 155.995 165.63 139.872 180.167C126.888 191.873 116.495 197.333 107.165 197.349C97.8234 197.333 87.4297 191.873 74.4451 180.167C58.3235 165.63 48.3076 140.798 48.3076 115.363V107.084C48.3076 101.815 50.8602 96.8204 55.1332 93.7234L63.6025 87.4626C62.7799 79.5464 63.0017 63.3543 78.2815 49.6747C81.3939 46.9619 86.113 46.9715 89.2569 49.6979C94.2183 54.002 100.576 56.3715 107.158 56.3715C113.741 56.3715 120.098 54.002 125.061 49.6979C128.204 46.9728 132.922 46.9606 136.033 49.672C150.885 62.8911 151.596 79.1717 150.731 87.4749ZM80.6725 91.2183C80.6725 87.5777 82.9883 84.6156 85.8351 84.6156C88.6819 84.6156 90.9963 87.5777 90.9963 91.2183C90.9963 94.8603 88.6819 97.821 85.8351 97.821C82.9883 97.821 80.6725 94.8603 80.6725 91.2183ZM107.145 95.5619C109.593 95.5619 111.352 97.3209 111.523 99.9383C111.549 100.328 111.561 100.727 111.561 101.125C111.561 105.294 110.718 108.694 108.742 112.492L108.666 112.638C108.38 113.202 107.948 114.053 107.145 114.053C106.345 114.053 105.913 113.206 105.625 112.643L105.623 112.638L105.549 112.492C103.571 108.694 102.729 105.294 102.729 101.125C102.729 100.727 102.741 100.328 102.767 99.9383C102.937 97.3209 104.697 95.5619 107.145 95.5619ZM135.132 90.1877C134.452 88.0336 132.453 86.3727 130.158 86.0566C126.953 85.6152 123.695 87.5295 121.441 91.1742C120.763 92.2656 121.071 93.1907 121.586 93.6908C121.938 94.0341 122.407 94.2221 122.94 94.2344C122.952 94.2358 122.963 94.2358 122.974 94.2358C123.604 94.2358 124.188 93.8228 124.618 93.5192L124.622 93.5164L124.816 93.3815C127.14 91.8146 129.097 91.7015 131.165 93.0109C132.31 93.7357 133.492 93.8066 134.328 93.1989C135.193 92.5681 135.51 91.3854 135.132 90.1877Z" fill="#081736"/>
</svg>
