<svg width="137" height="29" viewBox="0 0 137 29" fill="none" xmlns="http://www.w3.org/2000/svg">
<path d="M11.7413 17.6916C10.6836 18.417 9.51595 19.1992 8.37989 20.0244C8.26363 20.1091 8.28132 20.473 8.3344 20.6815C9.14063 23.8092 6.47676 26.6323 3.34659 25.9575C1.5673 25.5784 0.347835 24.2351 0.043284 22.3307C-0.209455 20.7296 0.663759 18.992 2.1625 18.1327C3.63218 17.2885 5.59723 17.4237 6.89378 18.5396C7.31459 18.901 7.57112 18.9187 8.00457 18.5939C8.91191 17.9103 9.85968 17.2809 10.8024 16.6466C11.0893 16.4532 11.1259 16.2434 11.1727 15.8883C11.3306 14.7131 10.6508 14.2076 9.78259 13.7401C9.07998 13.361 8.41401 12.9123 7.74931 12.4675C7.43465 12.2565 7.19328 12.2413 6.83944 12.4283C5.55932 13.0981 4.04288 12.5471 3.4401 11.2316C3.30664 10.9272 3.23523 10.5993 3.23005 10.2669C3.22487 9.93458 3.28603 9.60455 3.40993 9.29613C3.53384 8.98771 3.71802 8.7071 3.95168 8.47073C4.18535 8.23434 4.46381 8.04694 4.77077 7.91948C5.08247 7.789 5.41777 7.72433 5.75564 7.72953C6.09351 7.73472 6.42666 7.80968 6.7342 7.94968C7.04173 8.08969 7.31703 8.29173 7.54281 8.54313C7.7686 8.79454 7.94 9.08988 8.04627 9.41064C8.13979 9.68233 8.22572 10.0096 8.15874 10.2712C7.98688 10.9511 8.33945 11.2468 8.8563 11.5425C9.74847 12.0568 10.604 12.6356 11.4759 13.1853C11.5101 13.2068 11.5556 13.208 11.414 13.1701C12.2822 12.6369 13.0442 12.1882 13.7809 11.7005C13.8522 11.6365 13.9098 11.5587 13.9502 11.4718C13.9906 11.3849 14.013 11.2907 14.016 11.195C14.0375 10.5429 13.973 9.88705 14.016 9.23751C14.0552 8.66759 13.8239 8.45402 13.2957 8.28595C11.6124 7.74761 10.6267 6.54205 10.4018 4.80194C10.1794 3.09595 10.8226 1.68187 12.2721 0.735362C13.7733 -0.238948 15.3517 -0.241475 16.8568 0.706297C18.3618 1.65407 18.9975 3.10732 18.7624 4.8765C18.5413 6.54963 17.5695 7.69075 15.9899 8.24551C15.4743 8.42622 15.3012 8.65242 15.3403 9.1718C15.3909 9.82134 15.3896 10.4772 15.382 11.1293C15.382 11.4818 15.5349 11.6183 15.8483 11.7611C16.3817 11.9962 16.8855 12.2931 17.3496 12.6457C17.6466 12.877 17.8286 12.949 18.1571 12.7203C19.072 12.0817 20.0021 11.4658 20.9474 10.8727C21.3265 10.6326 21.4604 10.3673 21.4528 9.90727C21.4149 8.58671 22.2629 7.64273 23.5834 7.4418C24.7726 7.25983 25.8884 7.97129 26.265 9.15285C26.4103 9.62874 26.4119 10.1369 26.2696 10.6137C26.1273 11.0905 25.8474 11.5147 25.4651 11.8331C24.6904 12.465 23.5291 12.5914 22.6849 12.0379C22.2351 11.7396 21.9583 11.8407 21.583 12.0998C20.6479 12.7455 20.0767 13.0804 19.1137 13.6845C18.8724 13.8467 18.6762 14.0676 18.5436 14.3265C18.411 14.5853 18.3463 14.8736 18.3555 15.1642C18.3858 16.1171 18.9419 16.3862 19.6192 16.8071C20.5809 17.4124 21.5388 18.0265 22.4764 18.666C22.7961 18.8846 22.9971 18.858 23.2991 18.623C24.7675 17.4793 26.6631 17.3795 28.1896 18.3235C29.5974 19.1992 30.396 20.957 30.1155 22.5632C29.792 24.4107 28.5321 25.7022 26.6858 26.0737C23.5581 26.7056 20.9474 23.7056 21.9229 20.5779C22.0493 20.1874 22.0089 19.9966 21.6487 19.773C20.5228 19.0741 19.4246 18.3285 18.3176 17.5994C18.0737 17.4389 17.9044 17.3732 17.615 17.6209C17.0981 18.0644 16.4852 18.3943 15.9368 18.8037C15.7662 18.9301 15.5577 19.1575 15.5577 19.342C15.5413 20.4364 15.5577 21.532 15.6196 22.6276C15.631 22.8185 15.8976 23.0485 16.0998 23.1634C17.0577 23.7043 17.5682 24.6799 17.4141 25.749C17.2599 26.8181 16.5421 27.5788 15.4819 27.8265C14.9007 27.9506 14.2943 27.8616 13.7734 27.5756C13.2525 27.2897 12.8519 26.8259 12.6446 26.2689C12.4374 25.712 12.4373 25.0991 12.6446 24.5422C12.8518 23.9853 13.2525 23.5215 13.7733 23.2355C14.1525 23.0295 14.2637 22.7982 14.2472 22.3964C14.2093 21.4499 14.2017 20.5008 14.1992 19.5543C14.1992 19.1613 14.1032 18.944 13.6723 18.7734C13.0265 18.5168 12.4439 18.091 11.7413 17.6916ZM4.25013 24.6799C5.00478 24.6753 5.72749 24.3747 6.26277 23.8427C6.79806 23.3107 7.10314 22.5899 7.1124 21.8353C7.10332 21.0803 6.80303 20.3579 6.2742 19.819C5.74537 19.28 5.02885 18.9661 4.27414 18.9427C2.71727 18.925 1.36764 20.2696 1.38028 21.8366C1.39314 22.5906 1.70066 23.3097 2.23701 23.84C2.77337 24.3702 3.49595 24.6694 4.25013 24.6736V24.6799ZM28.7848 21.9882C28.7975 21.2331 28.5134 20.5031 27.9935 19.9553C27.4736 19.4075 26.7594 19.0857 26.0047 19.059C24.4478 19.0211 23.0982 20.2898 23.0615 21.8302C23.0406 22.5892 23.322 23.3254 23.8438 23.8769C24.3657 24.4283 25.0852 24.7499 25.8442 24.7709C26.6031 24.7918 27.3393 24.5104 27.8908 23.9886C28.4423 23.4667 28.7639 22.7472 28.7848 21.9882ZM17.4381 4.28382C17.4409 3.52935 17.147 2.80402 16.6198 2.26429C16.0926 1.72457 15.3744 1.41372 14.62 1.3988C13.0859 1.38996 11.7514 2.68272 11.7135 4.22443C11.6756 5.76614 13.0088 7.13093 14.591 7.13093C14.9651 7.13193 15.3358 7.05897 15.6817 6.91624C16.0276 6.77352 16.3418 6.56384 16.6064 6.29926C16.871 6.03468 17.0807 5.72042 17.2234 5.37455C17.3661 5.02867 17.4391 4.65799 17.4381 4.28382ZM14.7717 12.9629C14.156 12.9776 13.5702 13.2313 13.1381 13.6702C12.7061 14.1091 12.4616 14.6988 12.4566 15.3146C12.473 16.5581 13.5825 17.6259 14.8374 17.6044C16.0606 17.5842 17.1209 16.5 17.112 15.278C17.1031 14.6624 16.8529 14.0749 16.4152 13.6419C15.9775 13.209 15.3873 12.9651 14.7717 12.9629ZM14.96 24.278C14.3749 24.2945 13.8226 24.8631 13.8479 25.4368C13.8656 25.9891 14.4102 26.5021 14.9852 26.5034C15.2819 26.4941 15.5629 26.3684 15.7675 26.1534C15.9721 25.9384 16.0838 25.6514 16.0783 25.3547C16.048 24.7683 15.5198 24.2629 14.96 24.278ZM6.81417 10.2358C6.81417 9.63052 6.28468 9.0884 5.69833 9.09851C5.41173 9.11013 5.1401 9.22961 4.93787 9.43301C4.73563 9.63642 4.61772 9.90873 4.60776 10.1954C4.60293 10.3426 4.62854 10.4892 4.68298 10.6261C4.73742 10.7629 4.81952 10.8871 4.92414 10.9907C5.02876 11.0944 5.15365 11.1754 5.29099 11.2286C5.42834 11.2818 5.57518 11.306 5.72234 11.2999C5.86403 11.3022 6.00479 11.2765 6.13649 11.2242C6.2682 11.1719 6.38826 11.094 6.48975 10.9951C6.59124 10.8962 6.67216 10.7782 6.72783 10.6479C6.78351 10.5176 6.81286 10.3775 6.81417 10.2358ZM23.9095 11.0042C24.1949 10.9904 24.465 10.8708 24.6671 10.6687C24.8692 10.4666 24.9888 10.1965 25.0026 9.91106C25.0046 9.7631 24.9769 9.61623 24.9211 9.47916C24.8654 9.34209 24.7827 9.21761 24.6779 9.11309C24.5732 9.00857 24.4485 8.92614 24.3113 8.87068C24.1741 8.81523 24.0272 8.78787 23.8792 8.79024C23.7313 8.79261 23.5853 8.82466 23.4499 8.88447C23.3146 8.94429 23.1926 9.03067 23.0913 9.13849C22.9899 9.24631 22.9112 9.37338 22.8599 9.51216C22.8085 9.65094 22.7856 9.79862 22.7923 9.94645C22.8088 10.2318 22.9336 10.5 23.1412 10.6964C23.3489 10.8928 23.6237 11.0024 23.9095 11.0029V11.0042Z" fill="#384FC3"/>
<path d="M127.314 17.3579V23.3314C126.734 23.3314 126.215 23.3504 125.699 23.3175C125.59 23.3099 125.446 23.133 125.405 23.0067C125.351 22.8563 125.386 22.6743 125.386 22.5012C125.386 17.0917 125.386 11.6823 125.386 6.27279V5.24414H127.309V16.649C127.579 16.4304 127.741 16.3192 127.88 16.184C129.423 14.6915 130.979 13.213 132.491 11.6903C132.985 11.1936 133.478 10.8992 134.197 10.9927C134.624 11.0483 135.065 11.0028 135.644 11.0028C133.544 13.0133 131.546 14.9203 129.472 16.9081L136.251 23.3264C135.351 23.3264 134.608 23.3542 133.869 23.3074C133.678 23.296 133.49 23.0673 133.322 22.9119C131.476 21.1899 129.632 19.4649 127.789 17.737C127.685 17.641 127.568 17.5652 127.314 17.3579Z" fill="#384FC3"/>
<path d="M78.908 20.5072C79.0925 20.9052 79.3099 21.2502 79.4021 21.6268C79.4426 21.7898 79.2758 22.0893 79.1203 22.203C77.5129 23.3404 75.6869 23.703 73.7787 23.4137C70.5879 22.9297 68.8124 20.8066 68.7176 17.5589C68.6734 16.0337 68.9046 14.5842 69.7121 13.2624C71.5394 10.2636 76.1696 9.72403 78.376 12.2754C79.531 13.6112 79.7737 15.2401 79.7813 17.008C79.5285 17.0193 79.3048 17.0383 79.0824 17.0383C76.4729 17.0383 73.8621 17.0509 71.2475 17.0282C70.7357 17.0282 70.5398 17.1786 70.6498 17.679C70.7888 18.3108 70.8608 18.9718 71.0845 19.5745C71.6241 21.024 72.7538 21.7418 74.2564 21.8985C75.975 22.0716 77.5028 21.5699 78.908 20.5072ZM70.766 15.7746H78.0083C77.9577 13.5922 76.6928 12.2009 74.7467 12.1314C72.5731 12.053 70.9493 13.5214 70.766 15.7746Z" fill="#384FC3"/>
<path d="M97.1698 28.8829C97.0434 28.4394 96.9094 27.9857 96.7679 27.5004L98.1239 27.067C99.9259 26.4945 100.717 25.0274 101.313 23.4111C101.385 23.2165 101.263 22.9208 101.168 22.6996C99.5961 19.0046 98.0186 15.3133 96.4356 11.6259C96.3623 11.4553 96.3092 11.2758 96.2056 10.994C96.8248 10.994 97.3846 10.9523 97.9318 11.0193C98.1036 11.0395 98.297 11.3302 98.3829 11.5374C99.6213 14.5286 100.842 17.5261 102.069 20.5223C102.154 20.7283 102.26 20.9267 102.409 21.2401C102.668 20.6386 102.888 20.1457 103.094 19.6491C104.197 16.989 105.313 14.334 106.38 11.6613C106.583 11.1558 106.826 10.903 107.391 10.9763C107.739 11.0193 108.098 10.9839 108.575 10.9839C108.146 11.9873 107.765 12.8896 107.377 13.7906C105.734 17.5943 104.14 21.4157 102.448 25.1929C101.487 27.3222 99.452 28.6668 97.1698 28.8829Z" fill="#384FC3"/>
<path d="M46.2718 10.994C46.2137 11.0192 46.2326 11.0053 46.2516 11.0041C47.9083 10.8891 47.9083 10.8891 48.0675 12.5117C48.0814 12.657 48.0953 12.8011 48.1282 13.1435C48.3405 12.8478 48.4631 12.681 48.5818 12.5117C50.0983 10.3558 54.0157 10.0007 55.7571 11.8684C56.6417 12.8238 56.873 14.0294 56.8944 15.2627C56.9324 17.7661 56.8944 20.2708 56.9147 22.7754C56.9147 23.2114 56.7883 23.3845 56.3447 23.3517C55.929 23.3201 55.5082 23.3441 55.0153 23.3441C55.0014 23.0825 54.9799 22.8613 54.9799 22.6402C54.9799 20.3883 54.9799 18.1364 54.9799 15.8845V15.6317C54.9711 13.462 54.2407 12.4864 52.4652 12.2791C50.5128 12.0504 48.7752 13.2029 48.3531 15.0327C48.2614 15.443 48.2147 15.8621 48.2141 16.2825C48.2002 18.4081 48.2141 20.5336 48.2141 22.6592V23.31H46.2718V10.994Z" fill="#384FC3"/>
<path d="M112.745 13.0677C112.841 12.9803 112.93 12.8843 113.009 12.7808C114.331 10.4721 117.7 10.1738 119.622 11.2644C120.886 11.9771 121.4 13.208 121.438 14.55C121.517 17.4502 121.462 20.3529 121.462 23.2999H119.653C119.633 23.0585 119.595 22.8171 119.595 22.5745C119.584 20.1735 119.595 17.7724 119.559 15.3714C119.547 14.8267 119.453 14.2869 119.279 13.7703C119.027 12.9944 118.42 12.5445 117.625 12.3651C114.978 11.7686 112.881 13.395 112.812 16.1638C112.759 18.2893 112.798 20.4174 112.797 22.5442V23.2872H110.901V11.0294C110.858 11.0471 110.915 11.0028 110.971 11.0041C112.837 11.0218 112.444 10.6781 112.656 12.4472C112.678 12.6178 112.706 12.7935 112.745 13.0677Z" fill="#384FC3"/>
<path d="M61.4324 12.4473H59.0453V10.9826C59.6582 10.9826 60.2395 10.9624 60.8208 10.9826C61.2732 11.0029 61.4665 10.8563 61.4425 10.3748C61.4071 9.64059 61.4109 8.90132 61.4425 8.16711C61.4533 8.06351 61.4871 7.96362 61.5416 7.87483C61.596 7.78604 61.6697 7.71059 61.7572 7.65405C62.2488 7.43038 62.7745 7.27495 63.3646 7.07275C63.3646 8.20124 63.3886 9.26527 63.3545 10.3268C63.3381 10.8196 63.4922 10.9991 63.9863 10.9839C64.9303 10.9561 65.8756 10.9763 66.8612 10.9763V12.4422H63.4038C63.3899 12.7316 63.3697 12.9477 63.3697 13.1751C63.3697 15.2156 63.3697 17.2569 63.3697 19.299C63.3697 21.2995 64.3933 22.1537 66.3507 21.7771C66.5112 21.7468 66.673 21.7266 66.8196 21.7038C66.8486 21.7531 66.8676 21.7695 66.8701 21.7885C67.0293 23.3049 66.8853 23.4692 65.3537 23.4781C62.7669 23.4907 61.4678 22.1992 61.4362 19.5429C61.4135 17.4591 61.4299 15.3727 61.4299 13.2927L61.4324 12.4473Z" fill="#384FC3"/>
<path d="M91.9127 5.24036H93.7425V23.3112H91.9127V5.24036Z" fill="#384FC3"/>
<path d="M40.2124 23.3365V5.8457H42.0296C42.046 6.00998 42.0764 6.17047 42.0764 6.33096C42.0764 11.7421 42.0662 17.1533 42.0852 22.5644C42.0852 23.1508 41.9677 23.4326 41.327 23.3454C40.9795 23.2986 40.6206 23.3365 40.2124 23.3365Z" fill="#384FC3"/>
<path d="M89.6937 10.7615V12.4687C89.3537 12.4308 89.0719 12.3878 88.7876 12.3689C86.5028 12.2134 84.9422 13.5315 84.86 15.8238C84.7779 18.0745 84.8057 20.3289 84.836 22.5808C84.8436 23.1988 84.6629 23.3731 84.0576 23.3504C82.9203 23.3074 82.9203 23.3416 82.9203 22.2131C82.9114 19.0968 82.9064 15.9818 82.8861 12.8617C82.8861 12.2754 82.8116 11.6903 82.7598 10.994C83.2652 10.994 83.7467 10.9573 84.213 11.0167C84.3508 11.0344 84.5302 11.3086 84.5605 11.4881C84.6477 11.9936 84.6692 12.5193 84.7766 13.0715C85.8432 11.0546 87.5189 10.4379 89.6937 10.7615Z" fill="#384FC3"/>
</svg>
