<svg width="860" height="156" viewBox="0 0 860 156" fill="none" xmlns="http://www.w3.org/2000/svg">
<path d="M472.073 6.6803C480.374 10.8058 486.815 16.6807 491.354 24.3269C495.915 31.973 498.185 40.8503 498.185 50.9587C498.185 61.0671 495.915 69.9012 491.354 77.4826C486.793 85.0639 480.374 90.9173 472.073 95.0211C463.773 99.125 454.197 101.199 443.346 101.199H414.079V152.108H381.569V0.50293H443.346C454.176 0.50293 463.751 2.55485 472.073 6.6803ZM440.32 74.1563C447.972 74.1563 454.046 72.0612 458.52 67.8709C462.995 63.6807 465.243 58.0433 465.243 50.9803C465.243 43.9174 462.995 38.064 458.52 33.8737C454.046 29.6835 447.972 27.5884 440.32 27.5884H414.101V74.1563H440.32Z" fill="#2F3238"/>
<path d="M615.103 152.132H587.997L585.187 138.697C581.296 143.32 576.735 146.927 571.526 149.519C566.317 152.111 559.962 153.407 552.461 153.407C539.449 153.407 528.835 149.411 520.6 141.376C512.364 133.362 508.236 119.971 508.236 101.201V40.7666H538.8V97.5078C538.8 107.616 540.573 115.241 544.117 120.36C547.662 125.479 553.11 128.049 560.48 128.049C567.851 128.049 574.055 125.198 578.248 119.496C582.442 113.794 584.538 105.823 584.538 95.5638V40.7666H615.103V152.089V152.132Z" fill="#2F3238"/>
<path d="M666.289 127.011C670.613 130.035 676.189 131.568 682.977 131.568C689.764 131.568 694.606 130.532 698.367 128.437C702.128 126.341 704.008 123.339 704.008 119.451C704.008 116.557 703.144 114.397 701.415 112.95C699.685 111.503 697.221 110.466 694.044 109.818C690.866 109.17 685.657 108.414 678.437 107.55C668.602 106.254 660.453 104.591 653.947 102.561C647.441 100.53 642.231 97.3553 638.341 93.0354C634.45 88.694 632.483 82.927 632.483 75.7128C632.483 68.4987 634.471 62.1053 638.449 56.5327C642.426 50.9817 648.024 46.6835 655.244 43.638C662.463 40.5925 670.785 39.0806 680.167 39.0806C695.341 39.2318 707.597 42.4716 716.913 48.8218C726.229 55.172 731.266 63.9845 731.979 75.2377H702.928C702.495 71.0474 700.291 67.6131 696.313 64.9564C692.336 62.2997 687.235 60.939 681.031 60.939C675.26 60.939 670.591 62.0189 667.046 64.1789C663.501 66.3388 661.729 69.2331 661.729 72.8402C661.729 75.4321 662.658 77.3976 664.539 78.6935C666.419 79.9895 668.883 80.9399 671.909 81.5014C674.936 82.0846 679.994 82.7326 687.084 83.4454C702.106 85.1733 713.627 88.3916 721.647 93.0786C729.666 97.7657 733.687 105.822 733.687 117.227C733.687 124.441 731.547 130.791 727.288 136.277C723.03 141.763 717.107 145.997 709.52 148.956C701.933 151.915 693.157 153.405 683.193 153.405C667.738 153.405 655.157 149.971 645.474 143.124C635.79 136.255 630.667 126.925 630.083 115.067H659.135C659.567 119.97 661.945 123.944 666.289 126.989V127.011Z" fill="#2F3238"/>
<path d="M857.868 91.6963V152.131H827.304V92.9922C827.304 83.7478 825.423 76.7064 821.662 71.8682C817.901 67.03 812.259 64.6109 804.759 64.6109C797.258 64.6109 790.86 67.2892 786.451 72.6242C782.041 77.9592 779.836 85.4109 779.836 94.9362V152.109H749.272V0.504395H779.836V54.4376C788.072 44.4804 799.052 39.491 812.778 39.491C826.504 39.491 836.728 43.53 845.18 51.6297C853.631 59.7079 857.868 73.0778 857.868 91.6963Z" fill="#2F3238"/>
<path d="M235.022 152.107C276.856 152.107 310.901 118.096 310.901 76.3049C310.901 34.5134 276.871 0.50293 235.022 0.50293C193.174 0.50293 159.144 34.5134 159.144 76.3049C159.144 118.096 193.188 152.107 235.022 152.107ZM202.75 44.0649C211.373 35.4507 222.825 30.7047 235.022 30.7047C247.219 30.7047 258.672 35.4507 267.295 44.0649C275.918 52.6791 280.669 64.1349 280.669 76.3049C280.669 88.4748 275.918 99.9307 267.295 108.545C258.672 117.159 247.219 121.905 235.022 121.905C222.825 121.905 211.373 117.159 202.75 108.545C194.127 99.9307 189.391 88.4748 189.391 76.3049C189.391 64.1349 194.142 52.6791 202.75 44.0649Z" fill="#FD7452"/>
<path d="M142.287 0.50293L54.6577 152.107H89.5813L177.196 0.50293H142.287Z" fill="#FD7452"/>
<path d="M87.6291 0.50293L0 152.107H34.9236L122.553 0.50293H87.6291Z" fill="#FD7452"/>
</svg>
