<?xml version="1.0" encoding="utf-8"?>
<!-- Generator: Adobe Illustrator 25.3.1, SVG Export Plug-In . SVG Version: 6.00 Build 0)  -->
<svg version="1.1" id="Layer_1" xmlns="http://www.w3.org/2000/svg" xmlns:xlink="http://www.w3.org/1999/xlink" x="0px" y="0px"
	 viewBox="0 0 230 66.73" style="enable-background:new 0 0 230 66.73;" xml:space="preserve">
<style type="text/css">
	.st0{fill:#ED174E;}
	.st1{fill:#F47823;}
	.st2{fill:#FEC615;}
	.st3{fill:#111220;}
</style>
<g>
	<g>
		<rect class="st0" width="41.3" height="20.97"/>
		<polygon class="st1" points="61.64,8.79 61.64,29.75 41.62,29.75 41.62,49.97 20.65,49.97 20.65,8.79 		"/>
		
			<rect x="1.67" y="35.66" transform="matrix(4.481463e-11 1 -1 4.481463e-11 68.4048 23.8874)" class="st2" width="41.18" height="20.97"/>
	</g>
	<g>
		<path class="st3" d="M78.94,23.55h18.53v3.73h-7.1v15.91h-4.3V27.28h-7.13V23.55z"/>
		<path class="st3" d="M103.56,43.19V23.55h10.89c2.8,0,4.63,0.81,5.89,2.14c1.02,1.08,1.62,2.5,1.62,4.06
			c0,2.53-1.56,4.48-3.97,5.53l4.6,7.91h-4.93l-3.97-7.22h-5.83v7.22H103.56z M107.86,27.19v5.14h7.04c1.5,0,2.74-1.08,2.74-2.59
			c0-0.66-0.24-1.26-0.69-1.71c-0.69-0.75-1.56-0.84-2.35-0.84H107.86z"/>
		<path class="st3" d="M138.86,22.95c6.22,0,11.22,4.66,11.22,10.38c0,5.83-4.99,10.47-11.22,10.47c-6.23,0-11.1-4.63-11.1-10.47
			C127.76,27.61,132.63,22.95,138.86,22.95z M138.86,40.09c3.76,0,6.71-3.07,6.71-6.77c0-3.64-2.95-6.65-6.71-6.65
			c-3.7,0-6.59,3.01-6.59,6.65C132.27,37.02,135.16,40.09,138.86,40.09z"/>
		<path class="st3" d="M173.85,43.19v-11.4h-0.15l-5.5,9.17h-1.2l-5.5-9.17h-0.15v11.4h-4.18V23.55h4.12l6.44,10.77h0.06l6.41-10.77
			h4v19.64H173.85z"/>
		<path class="st3" d="M202.45,43.19h-17.38v-2.53l11.13-13.38h-10.56v-3.73h16.81v2.56l-11.13,13.38h11.13V43.19z"/>
		<path class="st3" d="M218.78,22.95c6.22,0,11.22,4.66,11.22,10.38c0,5.83-4.99,10.47-11.22,10.47c-6.23,0-11.1-4.63-11.1-10.47
			C207.68,27.61,212.56,22.95,218.78,22.95z M218.78,40.09c3.76,0,6.71-3.07,6.71-6.77c0-3.64-2.95-6.65-6.71-6.65
			c-3.7,0-6.59,3.01-6.59,6.65C212.2,37.02,215.08,40.09,218.78,40.09z"/>
	</g>
</g>
</svg>
